HIERARCHY
ROOT Hips
{
	OFFSET 0.000000 0.000000 0.000000 
	CHANNELS 6 Xposition Yposition Zposition Yrotation Zrotation Xrotation 
	JOINT Lumbar
	{
		OFFSET 0.000000 0.000000 0.000000 
		CHANNELS 3 Zrotation Xrotation Yrotation
		JOINT Neck
		{
			OFFSET 0.000000 0.445665 0.000000 
			CHANNELS 3 Zrotation Xrotation Yrotation
			End Site
			{
				OFFSET 0.000000 0.227535 0.000000 
			}
		}
		JOINT RightShoulder
		{
			OFFSET 0.019635 0.377685 0.194865 
			CHANNELS 3 Zrotation Xrotation Yrotation
			JOINT RightElbow
			{
				OFFSET 0.000000 -0.243375 0.000000 
				CHANNELS 2 Zrotation Yrotation
				JOINT RightWrist
				{
					OFFSET 0.000000 -0.264825 0.000000 
					CHANNELS 2 Zrotation Xrotation
					End Site
					{
						OFFSET 0.006600 -0.176220 0.000990 
					}
				}
			}
		}
		JOINT LeftShoulder
		{
			OFFSET 0.019635 0.377685 -0.194865 
			CHANNELS 3 Zrotation Xrotation Yrotation
			JOINT LeftElbow
			{
				OFFSET 0.000000 -0.243375 0.000000 
				CHANNELS 2 Zrotation Yrotation
				JOINT LeftWrist
				{
					OFFSET 0.000000 -0.264825 0.000000 
					CHANNELS 2 Zrotation Xrotation
					End Site
					{
						OFFSET 0.006600 -0.176220 -0.000990 
					}
				}
			}
		}
	}
	JOINT RightHip
	{
		OFFSET 0.052140 -0.069960 0.075570 
		CHANNELS 3 Zrotation Xrotation Yrotation
		JOINT RightKnee
		{
			OFFSET 0.000000 -0.402270 0.000000 
			CHANNELS 1 Zrotation
			JOINT RightAnkle
			{
				OFFSET 0.000000 -0.404085 0.000000 
				CHANNELS 3 Zrotation Xrotation Yrotation
				End Site
				{
					OFFSET 0.204105 -0.089430 0.008415 
				}
			}
		}
	}
	JOINT LeftHip
	{
		OFFSET 0.052140 -0.069960 -0.075570 
		CHANNELS 3 Zrotation Xrotation Yrotation
		JOINT LeftKnee
		{
			OFFSET 0.000000 -0.402270 0.000000 
			CHANNELS 1 Zrotation
			JOINT LeftAnkle
			{
				OFFSET 0.000000 -0.404085 0.000000 
				CHANNELS 3 Zrotation Xrotation Yrotation
				End Site
				{
					OFFSET 0.204105 -0.089430 -0.008415 
				}
			}
		}
	}
}
MOTION
Frames: 30
Frame Time: 0.02
-1.10863 -0.03196 -0.80509 208.11935 -30.81684 -2.1393 36.71196 4.53961 -2.90136 -4.09339 -5.03816 -2.1197 19.64297 -4.16707 13.01447 32.22336 112.18544 7.22048 7.15313 -6.39249 -7.37463 -55.57654 97.42383 -113.60931 44.99426 -1.19414 15.08538 5.93685 -12.89635 -18.36526 -6.46385 -3.20919 -3.79829 47.50493 12.66149 -1.07381 -26.04682 -7.90418 3.04144 3.77817
-1.11597 -0.03166 -0.79269 208.6533 -30.4487 -2.09625 36.62031 4.35023 -2.89657 -4.22978 -5.34444 -2.1197 18.51757 -4.83151 10.32644 30.07268 116.36754 8.24634 7.64333 -6.32954 -7.52207 -55.58474 97.4268 -114.26614 45.50633 -1.13179 16.67104 5.08687 -13.3761 -23.10854 -7.25951 -2.38405 -3.4115 46.4245 12.23699 -0.48883 -26.32699 -7.73242 3.00388 3.75098
-1.12297 -0.03173 -0.78033 209.23373 -30.008 -2.0435 36.45408 4.16923 -2.88002 -4.41756 -5.61645 -2.1197 17.3565 -5.5206 7.39697 28.11308 120.17303 9.36492 8.10991 -6.21501 -7.62419 -55.59565 97.50091 -115.04624 46.00885 -1.00112 18.45406 4.23815 -12.82125 -28.19009 -7.336 -2.99824 -3.73358 45.2851 11.89101 0.49331 -26.62982 -7.52618 2.93548 3.7064
-1.13011 -0.03161 -0.76802 209.79971 -29.59761 -1.99776 36.31678 3.98689 -2.88735 -4.59182 -5.90662 -2.1197 16.18722 -6.19046 4.63831 26.14098 124.0653 10.42847 8.56899 -6.11965 -7.73176 -55.60477 97.53816 -115.73987 46.49176 -0.90576 20.1328 3.40333 -12.78959 -33.06637 -7.75245 -2.90668 -3.70265 44.16388 11.51109 1.27203 -26.90552 -7.33903 2.88163 3.67015
-1.13729 -0.03158 -0.75538 210.34176 -29.19612 -1.93798 36.19833 3.79259 -2.81791 -4.72505 -6.18988 -2.1197 15.11595 -6.89569 1.60941 23.85973 128.3612 11.55243 9.10457 -6.04188 -7.90332 -55.61619 97.59306 -116.56148 47.07756 -0.79415 21.88759 2.49994 -12.61174 -38.20076 -8.12321 -2.94815 -3.74204 43.07469 11.11667 2.1356 -27.25217 -7.13664 2.82723 3.63288
-1.14431 -0.03144 -0.74346 210.94344 -28.76165 -1.90705 36.02488 3.62635 -2.90475 -4.95481 -6.47707 -2.11971 13.8348 -7.53304 -0.90585 22.26506 131.70646 12.5699 9.4753 -5.91669 -7.93204 -55.62352 97.62983 -117.14632 47.44727 -0.69932 23.52751 1.74376 -12.46304 -42.85405 -8.41219 -3.0868 -3.82584 41.90918 10.77594 2.92463 -27.45669 -6.95831 2.76552 3.59311
-1.151 -0.03094 -0.73343 211.69392 -28.23057 -1.94909 35.70318 3.52847 -3.42894 -5.4501 -6.79308 -2.11971 11.97388 -7.97033 -1.98475 22.53111 132.54609 13.27459 9.39766 -5.65666 -7.56194 -55.61841 97.58464 -117.04315 47.20734 -0.66958 24.77425 1.37856 -12.64545 -46.19484 -8.68088 -3.14494 -3.86557 40.51393 10.53768 3.36773 -27.26018 -6.85238 2.69733 3.55336
-1.15754 -0.03033 -0.72413 212.50294 -27.67323 -2.02232 35.33143 3.45994 -4.10985 -6.03859 -7.11202 -2.11972 9.90577 -8.33925 -2.52962 23.4784 132.43083 13.86685 9.15492 -5.35333 -7.05215 -55.60918 97.52139 -116.69813 46.75217 -0.65849 25.90109 1.16495 -12.88227 -49.0151 -8.88561 -3.26286 -3.93299 39.05045 10.3559 3.72949 -26.92042 -6.77238 2.62176 3.51123
-1.16413 -0.02976 -0.71454 213.28754 -27.14316 -2.0878 34.99243 3.38277 -4.71723 -6.57707 -7.42281 -2.11973 7.93832 -8.74366 -3.29074 24.10628 132.72806 14.50784 8.98707 -5.08084 -6.61648 -55.60216 97.47603 -116.4667 46.40577 -0.63726 27.09888 0.89307 -13.08479 -52.00675 -9.09923 -3.36324 -3.99186 37.64013 10.16693 4.16008 -26.64815 -6.68226 2.5451 3.46826
-1.17077 -0.02922 -0.70475 214.0649 -26.54565 -2.12659 34.609 3.28619 -5.33494 -7.15006 -7.76109 -2.11974 5.93995 -9.13083 -4.1717 24.78425 133.10231 15.16428 8.8186 -4.7606 -6.13509 -55.59383 97.3926 -116.22449 46.01493 -0.62064 28.23539 0.57721 -13.29319 -55.29332 -9.37296 -3.47108 -4.05699 36.13367 9.9045 4.47723 -26.36646 -6.584 2.48528 3.43241
-1.17729 -0.0286 -0.69557 214.87029 -26.08354 -2.22753 34.30669 3.2367 -5.96729 -7.6721 -8.04343 -2.11975 3.95999 -9.53668 -4.67354 25.51474 133.09575 15.75792 8.61301 -4.52874 -5.71543 -55.58722 97.38285 -115.94512 45.66304 -0.59982 29.46715 0.38781 -13.51526 -57.82816 -9.51578 -3.55984 -4.10709 34.81268 9.80512 4.99696 -26.07021 -6.50918 2.39009 3.38187
-1.18354 -0.02772 -0.68791 215.74101 -26.00053 -2.50094 34.24554 3.31185 -6.61192 -8.03505 -8.16866 -2.11975 2.05901 -10.01622 -4.25321 26.2441 132.25569 16.2275 8.34134 -4.56409 -5.50806 -55.58616 97.58419 -115.62676 45.49308 -0.56233 31.00099 0.52166 -13.76372 -58.49013 -9.31486 -3.57182 -4.10426 34.01582 10.16249 6.17388 -25.76738 -6.49389 2.18995 3.28718
-1.18967 -0.02677 -0.68085 216.63718 -26.05549 -2.83424 34.26735 3.43305 -7.2638 -8.34238 -8.23785 -2.11975 0.1884 -10.51557 -3.46988 26.99837 131.06946 16.63297 8.03896 -4.68757 -5.3662 -55.58699 97.85942 -115.27808 45.36537 -0.52044 32.63216 0.77604 -14.02762 -58.39748 -8.98779 -3.55721 -4.08281 33.40935 10.67792 7.54108 -25.45487 -6.50125 1.95628 3.17864
-1.19584 -0.02588 -0.67353 217.52006 -26.04819 -3.13463 34.24812 3.53193 -7.90599 -8.67209 -8.33431 -2.11975 -1.68149 -11.00245 -2.8551 27.72628 130.05441 17.05324 7.75326 -4.76301 -5.18982 -55.5871 98.09826 -114.93952 45.20454 -0.48114 34.21112 0.96726 -14.28953 -58.59914 -8.72045 -3.5541 -4.0696 32.71887 11.10711 8.76797 -25.14776 -6.49764 1.74408 3.07925
-1.20207 -0.02486 -0.66617 218.41258 -26.0372 -3.46027 34.24061 3.63756 -8.58152 -9.01752 -8.42388 -2.11975 -3.62108 -11.50248 -2.20574 28.54001 128.9496 17.53102 7.44994 -4.87156 -5.02948 -55.58654 98.34805 -114.60733 45.09639 -0.43974 35.81896 1.19689 -14.53583 -58.98877 -8.43951 -3.55684 -4.05889 32.01455 11.59869 10.21911 -24.83196 -6.49775 1.50537 2.96776
-1.20816 -0.02409 -0.65904 219.28993 -26.06811 -3.74698 34.22978 3.73986 -9.18619 -9.31554 -8.51366 -2.11975 -5.40413 -11.97964 -1.55039 29.17398 127.95916 17.87417 7.17863 -4.93149 -4.85202 -55.58779 98.5932 -114.25872 44.88955 -0.40171 37.39221 1.37599 -14.81223 -58.8137 -8.15883 -3.53963 -4.03791 31.38617 11.99768 11.24995 -24.5332 -6.4952 1.31392 2.87818
-1.21388 -0.02401 -0.65234 220.12225 -26.17179 -3.91281 34.18362 3.82017 -9.60232 -9.49778 -8.62436 -2.11975 -6.7725 -12.39783 -0.9595 29.28475 127.39923 17.87044 7.00006 -4.84604 -4.62123 -55.59431 98.80424 -113.865 44.41639 -0.37159 38.83754 1.36069 -15.21801 -57.2719 -7.90287 -3.47534 -3.99345 30.9125 12.0972 11.06854 -24.28969 -6.47916 1.26197 2.85277
-1.21948 -0.02418 -0.64586 220.93771 -26.31465 -4.03701 34.13266 3.89575 -9.94466 -9.63355 -8.73588 -2.11975 -7.9808 -12.79078 -0.37998 29.21412 126.96604 17.73219 6.85615 -4.70708 -4.36967 -55.60242 99.00884 -113.45819 43.84058 -0.34538 40.24618 1.29394 -15.64526 -55.18951 -7.65321 -3.39098 -3.93893 30.51038 12.09896 10.45924 -24.06317 -6.45966 1.2586 2.84985
-1.22514 -0.02423 -0.6393 221.75838 -26.44583 -4.17927 34.08795 3.97428 -10.31389 -9.78903 -8.84277 -2.11975 -9.25542 -13.18992 0.1979 29.23674 126.45942 17.65013 6.69931 -4.58578 -4.12202 -55.60938 99.21846 -113.06352 43.30188 -0.31897 41.6787 1.26716 -16.02814 -53.35121 -7.40557 -3.3146 -3.88867 30.08161 12.14823 10.0491 -23.82598 -6.44196 1.23254 2.83651
-1.23077 -0.02428 -0.63268 222.58966 -26.55628 -4.32724 34.02875 4.05078 -10.71066 -9.9483 -8.96599 -2.11975 -10.55873 -13.61273 0.82058 29.21526 126.00506 17.58694 6.52954 -4.4949 -3.90053 -55.61835 99.42142 -112.64219 42.80431 -0.28588 43.08696 1.17637 -16.55268 -51.49048 -7.13287 -3.2429 -3.83942 29.63548 12.18911 9.62427 -23.60141 -6.42399 1.20801 2.82361
-1.23644 -0.02441 -0.62623 223.3953 -26.71699 -4.45268 33.99773 4.13009 -11.03353 -10.08969 -9.05571 -2.11975 -11.76152 -13.97906 1.33865 29.24186 125.47892 17.45297 6.39513 -4.32775 -3.61798 -55.62334 99.63627 -112.27285 42.19678 -0.26755 44.53223 1.20294 -16.79335 -49.56106 -6.91549 -3.1561 -3.7855 29.23899 12.22335 9.12776 -23.35398 -6.40561 1.19209 2.81521
-1.24217 -0.0247 -0.62021 224.12731 -27.0097 -4.52517 34.04343 4.21542 -11.15984 -10.1902 -9.05627 -2.11975 -12.75182 -14.20384 1.6017 29.44723 124.70638 17.16029 6.35234 -3.95491 -3.17852 -55.61821 99.88067 -112.05832 41.30553 -0.29005 46.11694 1.58349 -16.19106 -47.55348 -6.85052 -3.04072 -3.72497 28.96966 12.25204 8.52132 -23.04543 -6.38575 1.18983 2.81463
-1.24797 -0.02509 -0.61434 224.83529 -27.35018 -4.57605 34.11762 4.30395 -11.21585 -10.27508 -9.02259 -2.11975 -13.64152 -14.37114 1.75306 29.7069 123.86208 16.80075 6.3437 -3.50842 -2.67669 -55.60882 100.1377 -111.89541 40.30809 -0.32712 47.73312 2.07981 -15.31258 -45.50409 -6.84158 -2.90965 -3.65957 28.74495 12.27852 7.85952 -22.71191 -6.36574 1.19442 2.81771
-1.25377 -0.02544 -0.60838 225.55865 -27.66655 -4.63749 34.17995 4.39281 -11.31142 -10.36932 -9.00265 -2.11975 -14.56075 -14.5591 1.93216 29.94022 123.06399 16.46956 6.31795 -3.1004 -2.19889 -55.60053 100.39188 -111.70357 39.36228 -0.35686 49.31756 2.51145 -14.59544 -43.49012 -6.80665 -2.7802 -3.59383 28.49448 12.3127 7.23325 -22.3862 -6.34643 1.19483 2.81857
-1.25941 -0.02576 -0.6025 226.26248 -27.99551 -4.69549 34.23785 4.47441 -11.37392 -10.45254 -8.99078 -2.11975 -15.54378 -14.76872 2.20467 30.17361 122.2135 16.14186 6.29992 -2.66881 -1.73899 -55.59573 100.63408 -111.53368 38.39805 -0.38965 50.97975 2.99334 -13.72678 -41.38358 -6.77347 -2.67232 -3.53803 28.27176 12.31599 6.54905 -22.07719 -6.32422 1.20131 2.82252
-1.26541 -0.02616 -0.59649 227.00164 -28.30781 -4.75466 34.31141 4.57144 -11.48752 -10.55541 -8.9535 -2.11975 -16.37077 -14.92056 2.26073 30.42298 121.45249 15.7932 6.27371 -2.27031 -1.22679 -55.58274 100.90381 -111.33136 37.44909 -0.41959 52.48122 3.39742 -13.10916 -39.47192 -6.75066 -2.51727 -3.4611 27.99838 12.38346 5.97709 -21.72576 -6.30822 1.19626 2.82068
-1.27232 -0.02678 -0.59005 227.84284 -28.57283 -4.83455 34.42456 4.71453 -11.77688 -10.71831 -8.85828 -2.11975 -16.80284 -14.92096 1.70673 30.69657 120.96506 15.39984 6.2145 -1.97503 -0.58936 -55.54672 101.25058 -111.0197 36.56187 -0.43722 53.58835 3.57055 -13.23865 -38.07135 -6.73592 -2.22575 -3.32209 27.59506 12.63683 5.73716 -21.27561 -6.30834 1.15655 2.80136
-1.27961 -0.02748 -0.58346 228.72055 -28.81732 -4.91439 34.55201 4.87227 -12.11703 -10.90137 -8.7378 -2.11976 -17.07948 -14.86619 0.94604 30.98648 120.56798 14.9889 6.14613 -1.71728 0.09918 -55.50262 101.62374 -110.67508 35.69528 -0.45164 54.52208 3.66001 -13.63107 -36.87825 -6.73074 -1.88947 -3.16307 27.135 12.95403 5.61247 -20.78109 -6.31505 1.10493 2.77609
-1.28678 -0.02816 -0.57693 229.58282 -29.0641 -4.98633 34.67058 5.02054 -12.42302 -11.07417 -8.62657 -2.11976 -17.42135 -14.84098 0.30622 31.27421 120.123 14.58885 6.08309 -1.4463 0.76679 -55.46346 101.98233 -110.35025 34.82414 -0.46803 55.498 3.77918 -13.9141 -35.61726 -6.72595 -1.5801 -3.0164 26.68677 13.23687 5.43176 -20.29887 -6.31931 1.05932 2.75386
-1.29374 -0.02881 -0.57046 230.44024 -29.34211 -5.09055 34.79964 5.18077 -12.77392 -11.25112 -8.52424 -2.11976 -17.78467 -14.79572 -0.45063 31.54171 119.70417 14.1744 6.01618 -1.15542 1.4269 -55.41977 102.35281 -110.00669 33.92936 -0.48267 56.62988 3.93474 -14.15175 -34.2425 -6.70401 -1.2416 -2.85542 26.29884 13.54128 5.26493 -19.84956 -6.32077 1.01161 2.73044
